<svg xmlns="http://www.w3.org/2000/svg" xmlns:xlink="http://www.w3.org/1999/xlink" version="1.1" width="256" height="256" viewBox="0 0 256 256" xml:space="preserve">
<g style="stroke: none; stroke-width: 0; stroke-dasharray: none; stroke-linecap: butt; stroke-linejoin: miter; stroke-miterlimit: 10; fill: none; fill-rule: nonzero; opacity: 1;" transform="translate(1.4065934065934016 1.4065934065934016) scale(2.81 2.81)">
	<path d="M 86.788 37.348 c -4.709 0 -8.126 -3.119 -9.261 -6.938 c -0.922 0.163 -1.866 0.263 -2.835 0.263 c -8.955 0 -16.215 -7.26 -16.215 -16.215 c 0 -0.786 0.075 -1.553 0.183 -2.31 c -3.382 -1.382 -6.006 -4.618 -6.006 -8.938 C 52.654 1.99 51.663 1 50.443 1 L 39.559 1 c -1.221 0 -2.211 0.99 -2.211 2.211 c 0 8.603 -10.401 12.911 -16.484 6.828 c -0.863 -0.863 -2.263 -0.863 -3.127 0 l -7.697 7.696 c -0.863 0.863 -0.863 2.263 0 3.127 c 6.083 6.083 1.775 16.484 -6.828 16.484 c -1.221 0 -2.211 0.99 -2.211 2.211 l 0 10.885 c 0 1.221 0.99 2.211 2.211 2.211 c 4.795 0 8.252 3.232 9.324 7.145 c 0.374 -0.026 0.746 -0.057 1.126 -0.057 c 8.955 0 16.215 7.26 16.215 16.215 c 0 0.476 -0.031 0.945 -0.071 1.411 c 4.089 0.94 7.541 4.465 7.541 9.421 c 0 1.221 0.99 2.211 2.211 2.211 l 10.884 0 c 1.221 0 2.211 -0.99 2.211 -2.211 c 0 -8.603 10.401 -12.911 16.484 -6.827 c 0.863 0.863 2.263 0.863 3.127 0 l 7.696 -7.696 c 0.863 -0.863 0.863 -2.263 0 -3.127 c -6.083 -6.083 -1.775 -16.484 6.828 -16.484 c 1.221 0 2.211 -0.99 2.211 -2.211 l 0 -10.884 C 88.999 38.338 88.009 37.348 86.788 37.348 z M 65.264 53.393 c -4.635 11.191 -17.466 16.505 -28.657 11.87 c -11.191 -4.635 -16.505 -17.466 -11.87 -28.657 c 4.635 -11.191 17.466 -16.505 28.657 -11.87 S 69.899 42.202 65.264 53.393 z" style="stroke: none; stroke-width: 1; stroke-dasharray: none; stroke-linecap: butt; stroke-linejoin: miter; stroke-miterlimit: 10; fill: rgb(56,65,80); fill-rule: nonzero; opacity: 1;" transform=" matrix(1 0 0 1 0 0) " stroke-linecap="round"/>
	<path d="M 47.97 33.773 L 33.773 47.97 c -3.227 3.227 -7.561 5.211 -12.125 5.241 c -3.814 0.026 -7.621 1.494 -10.531 4.404 c -4.161 4.161 -5.359 10.148 -3.623 15.377 l 6.91 -6.91 c 2.605 -2.605 6.884 -2.869 9.565 -0.343 c 2.775 2.613 2.824 6.982 0.148 9.658 l -7.111 7.109 c 5.228 1.734 11.216 0.537 15.377 -3.623 c 2.91 -2.91 4.378 -6.717 4.404 -10.531 c 0.031 -4.564 2.014 -8.897 5.241 -12.125 L 56.228 42.03 c 3.227 -3.227 7.561 -5.211 12.125 -5.241 c 3.814 -0.026 7.621 -1.494 10.531 -4.404 c 4.161 -4.161 5.359 -10.148 3.623 -15.377 l -6.91 6.91 c -2.605 2.605 -6.884 2.869 -9.565 0.343 c -2.775 -2.613 -2.824 -6.982 -0.148 -9.658 l 7.11 -7.11 c -5.228 -1.734 -11.216 -0.537 -15.377 3.623 c -2.91 2.91 -4.377 6.717 -4.403 10.531 C 53.181 26.212 51.198 30.546 47.97 33.773 z" style="stroke: none; stroke-width: 1; stroke-dasharray: none; stroke-linecap: butt; stroke-linejoin: miter; stroke-miterlimit: 10; fill: rgb(41,119,201); fill-rule: nonzero; opacity: 1;" transform=" matrix(1 0 0 1 0 0) " stroke-linecap="round"/>
	<path d="M 21.799 84.286 c -1.703 0 -3.424 -0.272 -5.106 -0.83 c -0.329 -0.109 -0.578 -0.381 -0.658 -0.719 s 0.021 -0.692 0.266 -0.938 l 7.111 -7.109 c 1.104 -1.104 1.7 -2.574 1.677 -4.137 c -0.023 -1.562 -0.664 -3.013 -1.804 -4.087 c -2.23 -2.099 -5.896 -1.955 -8.173 0.322 L 8.201 73.7 c -0.245 0.245 -0.6 0.348 -0.938 0.266 c -0.337 -0.079 -0.609 -0.328 -0.719 -0.658 C 4.619 67.503 6.1 61.219 10.411 56.908 c 3 -3 6.989 -4.668 11.231 -4.696 c 4.144 -0.028 8.308 -1.832 11.424 -4.948 l 14.198 -14.198 c 3.116 -3.117 4.92 -7.281 4.948 -11.424 c 0.028 -4.242 1.695 -8.231 4.695 -11.232 c 4.311 -4.31 10.597 -5.792 16.399 -3.865 c 0.33 0.109 0.579 0.381 0.658 0.719 c 0.08 0.337 -0.021 0.692 -0.266 0.938 l -7.11 7.11 c -1.104 1.104 -1.7 2.574 -1.677 4.136 c 0.023 1.562 0.664 3.013 1.804 4.087 c 2.23 2.1 5.896 1.957 8.173 -0.322 l 6.911 -6.911 c 0.246 -0.246 0.604 -0.345 0.938 -0.266 c 0.338 0.08 0.609 0.329 0.719 0.658 c 1.926 5.806 0.444 12.089 -3.866 16.399 c -3 3 -6.989 4.668 -11.23 4.697 c -4.144 0.028 -8.308 1.832 -11.425 4.948 L 42.737 56.935 c -3.117 3.117 -4.92 7.281 -4.948 11.425 c -0.029 4.242 -1.697 8.23 -4.697 11.23 C 30.03 82.651 25.973 84.285 21.799 84.286 z M 18.938 81.991 c 4.605 0.951 9.364 -0.44 12.74 -3.815 c 2.625 -2.626 4.085 -6.117 4.111 -9.83 c 0.031 -4.664 2.048 -9.339 5.534 -12.825 l 14.197 -14.197 c 3.486 -3.486 8.161 -5.503 12.825 -5.534 c 3.713 -0.025 7.204 -1.485 9.83 -4.111 c 3.375 -3.375 4.768 -8.135 3.815 -12.741 l -5.688 5.688 c -3.034 3.035 -7.95 3.198 -10.958 0.364 c -1.537 -1.448 -2.4 -3.406 -2.433 -5.513 c -0.031 -2.108 0.772 -4.09 2.263 -5.58 l 5.888 -5.887 c -4.608 -0.956 -9.366 0.44 -12.741 3.814 c -2.625 2.626 -4.085 6.118 -4.109 9.832 c -0.032 4.665 -2.049 9.339 -5.534 12.825 l 0 0 L 34.48 48.678 c -3.485 3.485 -8.16 5.502 -12.825 5.534 c -3.713 0.024 -7.205 1.484 -9.831 4.11 c -3.375 3.375 -4.768 8.135 -3.815 12.741 l 5.688 -5.688 c 3.034 -3.034 7.95 -3.197 10.958 -0.363 c 1.537 1.447 2.401 3.404 2.433 5.512 c 0.031 2.108 -0.772 4.091 -2.263 5.581 L 18.938 81.991 z M 47.971 33.773 h 0.01 H 47.971 z" style="stroke: none; stroke-width: 1; stroke-dasharray: none; stroke-linecap: butt; stroke-linejoin: miter; stroke-miterlimit: 10; fill: rgb(0,0,0); fill-rule: nonzero; opacity: 1;" transform=" matrix(1 0 0 1 0 0) " stroke-linecap="round"/>
	<path d="M 6.04 54.061 c -0.094 0 -0.19 -0.013 -0.285 -0.041 c -0.818 -0.243 -1.673 -0.366 -2.542 -0.366 c -1.771 0 -3.211 -1.44 -3.211 -3.211 V 39.558 c 0 -1.771 1.44 -3.211 3.211 -3.211 c 3.568 0 6.632 -2.047 7.998 -5.344 c 1.365 -3.296 0.646 -6.911 -1.877 -9.434 c -1.251 -1.252 -1.251 -3.289 0 -4.541 l 7.697 -7.696 c 1.253 -1.252 3.29 -1.251 4.541 0 c 2.522 2.523 6.137 3.242 9.432 1.877 c 3.296 -1.365 5.345 -4.43 5.345 -7.998 c 0 -1.771 1.44 -3.211 3.211 -3.211 h 10.884 c 1.771 0 3.211 1.44 3.211 3.211 c 0 0.869 0.123 1.724 0.366 2.542 c 0.157 0.529 -0.145 1.086 -0.674 1.243 c -0.537 0.158 -1.086 -0.145 -1.244 -0.674 c -0.297 -1.002 -0.448 -2.049 -0.448 -3.111 C 51.653 2.544 51.11 2 50.442 2 H 39.559 c -0.667 0 -1.211 0.543 -1.211 1.211 c 0 4.393 -2.521 8.165 -6.58 9.846 c -4.057 1.68 -8.506 0.794 -11.611 -2.311 c -0.472 -0.472 -1.239 -0.471 -1.712 0 l -7.697 7.696 c -0.472 0.472 -0.472 1.241 0 1.713 c 3.105 3.105 3.991 7.555 2.31 11.613 c -1.681 4.058 -5.453 6.579 -9.845 6.579 c -0.667 0 -1.211 0.543 -1.211 1.211 v 10.885 c 0 0.668 0.543 1.211 1.211 1.211 c 1.062 0 2.109 0.151 3.112 0.448 c 0.529 0.157 0.831 0.714 0.674 1.243 C 6.869 53.779 6.471 54.061 6.04 54.061 z" style="stroke: none; stroke-width: 1; stroke-dasharray: none; stroke-linecap: butt; stroke-linejoin: miter; stroke-miterlimit: 10; fill: rgb(0,0,0); fill-rule: nonzero; opacity: 1;" transform=" matrix(1 0 0 1 0 0) " stroke-linecap="round"/>
	<path d="M 23.157 48.051 c -0.51 0 -0.945 -0.388 -0.995 -0.905 c -0.351 -3.701 0.219 -7.479 1.646 -10.924 c 3.877 -9.361 13.247 -15.011 23.337 -14.064 c 0.55 0.052 0.954 0.54 0.901 1.089 c -0.051 0.55 -0.532 0.953 -1.089 0.902 c -9.199 -0.869 -17.762 4.292 -21.302 12.838 c -1.303 3.145 -1.822 6.592 -1.502 9.969 c 0.052 0.55 -0.352 1.038 -0.901 1.09 C 23.22 48.05 23.188 48.051 23.157 48.051 z" style="stroke: none; stroke-width: 1; stroke-dasharray: none; stroke-linecap: butt; stroke-linejoin: miter; stroke-miterlimit: 10; fill: rgb(0,0,0); fill-rule: nonzero; opacity: 1;" transform=" matrix(1 0 0 1 0 0) " stroke-linecap="round"/>
	<path d="M 39.558 90 c -1.771 0 -3.211 -1.44 -3.211 -3.211 c 0 -0.867 -0.123 -1.723 -0.366 -2.542 c -0.157 -0.529 0.145 -1.086 0.675 -1.243 c 0.527 -0.158 1.086 0.146 1.243 0.675 c 0.297 1.004 0.448 2.05 0.448 3.11 c 0 0.668 0.543 1.211 1.211 1.211 l 10.884 -0.001 c 0.668 0 1.211 -0.543 1.211 -1.211 c 0 -4.392 2.521 -8.164 6.578 -9.845 c 4.061 -1.683 8.509 -0.795 11.613 2.311 c 0.473 0.473 1.24 0.473 1.713 0 l 7.696 -7.695 c 0.472 -0.473 0.472 -1.24 0 -1.713 c -3.105 -3.105 -3.991 -7.555 -2.311 -11.612 c 1.681 -4.059 5.453 -6.579 9.846 -6.579 c 0.668 0 1.211 -0.543 1.211 -1.211 L 87.998 39.56 c 0 -0.667 -0.543 -1.211 -1.211 -1.211 c -1.061 0 -2.106 -0.151 -3.11 -0.448 c -0.529 -0.157 -0.832 -0.714 -0.675 -1.243 s 0.712 -0.831 1.243 -0.675 c 0.819 0.243 1.675 0.366 2.542 0.366 c 1.771 0 3.211 1.44 3.211 3.211 l 0.001 10.884 c 0 1.771 -1.44 3.211 -3.211 3.211 c -3.568 0 -6.633 2.048 -7.998 5.344 c -1.365 3.297 -0.646 6.911 1.877 9.434 c 1.252 1.252 1.252 3.289 0 4.541 l -7.696 7.695 c -1.252 1.252 -3.289 1.252 -4.541 0 c -2.523 -2.523 -6.137 -3.24 -9.434 -1.877 c -3.296 1.365 -5.344 4.43 -5.344 7.997 c 0 1.771 -1.44 3.211 -3.211 3.211 L 39.558 90 z" style="stroke: none; stroke-width: 1; stroke-dasharray: none; stroke-linecap: butt; stroke-linejoin: miter; stroke-miterlimit: 10; fill: rgb(0,0,0); fill-rule: nonzero; opacity: 1;" transform=" matrix(1 0 0 1 0 0) " stroke-linecap="round"/>
	<path d="M 45.054 67.946 c -0.729 0 -1.461 -0.034 -2.199 -0.104 c -0.55 -0.052 -0.954 -0.539 -0.902 -1.089 s 0.532 -0.975 1.089 -0.901 c 9.207 0.859 17.762 -4.292 21.302 -12.839 c 1.318 -3.181 1.821 -6.534 1.496 -9.966 c -0.053 -0.55 0.351 -1.038 0.9 -1.09 c 0.561 -0.049 1.038 0.352 1.09 0.901 c 0.353 3.707 -0.215 7.483 -1.639 10.92 C 62.599 62.455 54.278 67.945 45.054 67.946 z" style="stroke: none; stroke-width: 1; stroke-dasharray: none; stroke-linecap: butt; stroke-linejoin: miter; stroke-miterlimit: 10; fill: rgb(0,0,0); fill-rule: nonzero; opacity: 1;" transform=" matrix(1 0 0 1 0 0) " stroke-linecap="round"/>
</g>
</svg>